<?xml version="1.0" encoding="UTF-8"?>
<!-- Uploaded to: SVG Repo, www.svgrepo.com, Generator: SVG Repo Mixer Tools -->
<svg width="800px" height="800px" fill="#000000" version="1.1" viewBox="0 0 455 455" xml:space="preserve" xmlns="http://www.w3.org/2000/svg">

	<path d="m413.05 55.876c-0.97622 0.087-1.9683 0.31318-2.9564 0.6953l-372.91 143.86c-9.2035 3.5452-9.1256 16.576 0.1043 20.033l90.863 33.911 35.17 113.11c2.2508 7.2394 11.108 9.9175 16.986 5.1105l50.65-41.287c5.309-4.3289 12.872-4.5431 18.417-0.51591l91.353 66.325c6.288 4.5692 15.2 1.1254 16.776-6.4746l66.921-321.89c1.5072-7.2633-4.5486-13.473-11.382-12.864zm-76.62 70.618c2.7281-0.45179 4.943 3.1302 2.542 5.3538l-146.55 136.23c-5.1526 4.7933-8.4731 11.214-9.4157 18.18l-4.9908 36.996c-0.66472 4.9385-7.5994 5.4262-8.9652 0.64663l-19.2-67.463c-2.1957-7.695 1.0075-15.915 7.8138-20.115l177.58-109.37c0.39871-0.24488 0.79923-0.39158 1.189-0.45611z" clip-rule="evenodd" fill-rule="evenodd" stroke-width="1.2518"/>
	

</svg>
